<svg width="28" height="28" viewBox="0 0 28 28" fill="none" xmlns="http://www.w3.org/2000/svg">
<g clip-path="url(#clip0_29_2435)">
<path d="M25.4239 21.821C25.0004 22.7992 24.4992 23.6997 23.9185 24.5276C23.1269 25.6562 22.4788 26.4374 21.9793 26.8712C21.205 27.5833 20.3754 27.948 19.487 27.9687C18.8493 27.9687 18.0802 27.7872 17.1849 27.4191C16.2867 27.0527 15.4612 26.8712 14.7064 26.8712C13.9149 26.8712 13.0659 27.0527 12.1578 27.4191C11.2484 27.7872 10.5157 27.9791 9.95558 27.9981C9.10368 28.0344 8.25454 27.6593 7.40697 26.8712C6.866 26.3994 6.18935 25.5905 5.37876 24.4446C4.50906 23.221 3.79404 21.802 3.23389 20.1843C2.63398 18.4369 2.33325 16.7449 2.33325 15.1067C2.33325 13.2303 2.73872 11.6118 3.55087 10.2556C4.18914 9.16624 5.03828 8.30691 6.10103 7.67606C7.16379 7.04522 8.3121 6.72375 9.54873 6.70318C10.2254 6.70318 11.1127 6.91248 12.2154 7.32383C13.315 7.73656 14.021 7.94586 14.3305 7.94586C14.5619 7.94586 15.3463 7.70112 16.6759 7.21321C17.9332 6.76073 18.9944 6.57338 19.8638 6.64718C22.2195 6.8373 23.9894 7.76594 25.1664 9.43897C23.0595 10.7155 22.0173 12.5035 22.0381 14.7972C22.0571 16.5838 22.7052 18.0705 23.979 19.2509C24.5562 19.7988 25.2009 20.2223 25.9182 20.523C25.7626 20.9741 25.5984 21.4062 25.4239 21.821ZM20.0211 0.560648C20.0211 1.96097 19.5095 3.26844 18.4898 4.47863C17.2592 5.9173 15.7707 6.74863 14.1567 6.61745C14.1361 6.44946 14.1242 6.27265 14.1242 6.08685C14.1242 4.74255 14.7094 3.30387 15.7486 2.12756C16.2675 1.53198 16.9274 1.03675 17.7276 0.641706C18.5261 0.252553 19.2814 0.0373421 19.9917 0.000488281C20.0124 0.187689 20.0211 0.374902 20.0211 0.56063V0.560648Z" fill="black"/>
</g>
<defs>
<clipPath id="clip0_29_2435">
<rect width="28" height="28" fill="white"/>
</clipPath>
</defs>
</svg>
