<svg width="28" height="28" viewBox="0 0 28 28" fill="none" xmlns="http://www.w3.org/2000/svg">
<g clip-path="url(#clip0_29_2429)">
<path d="M27.7271 14.3223C27.7271 13.3706 27.6499 12.4138 27.4853 11.4775H14.28V16.8687H21.8421C21.5283 18.6074 20.52 20.1456 19.0436 21.123V24.621H23.5551C26.2044 22.1827 27.7271 18.5817 27.7271 14.3223Z" fill="#4285F4"/>
<path d="M14.28 28.0009C18.0559 28.0009 21.2402 26.7611 23.5602 24.6211L19.0487 21.1231C17.7935 21.977 16.1731 22.4606 14.2852 22.4606C10.6328 22.4606 7.53596 19.9965 6.42481 16.6836H1.76929V20.2897C4.14592 25.0172 8.98663 28.0009 14.28 28.0009Z" fill="#34A853"/>
<path d="M6.41966 16.6837C5.83322 14.9449 5.83322 13.0621 6.41966 11.3234V7.71729H1.76928C-0.216388 11.6732 -0.216388 16.3339 1.76928 20.2898L6.41966 16.6837Z" fill="#FBBC04"/>
<path d="M14.28 5.54127C16.276 5.5104 18.2051 6.26146 19.6506 7.64011L23.6477 3.64305C21.1167 1.26642 17.7575 -0.0402103 14.28 0.000943444C8.98663 0.000943444 4.14592 2.98459 1.76929 7.71728L6.41966 11.3234C7.52567 8.00535 10.6276 5.54127 14.28 5.54127Z" fill="#EA4335"/>
</g>
<defs>
<clipPath id="clip0_29_2429">
<rect width="28" height="28" fill="white"/>
</clipPath>
</defs>
</svg>
